<svg width="512" height="512" viewBox="0 0 512 512" fill="none" xmlns="http://www.w3.org/2000/svg">
<path d="M273.349 477.364L359.281 321.144C361.053 317.803 361.99 314.015 362 310.157C362.01 306.299 361.092 302.505 359.337 299.153C357.583 295.801 355.053 293.008 351.999 291.051C348.946 289.094 345.475 288.042 341.932 288L170.068 288C166.525 288.042 163.054 289.094 160.001 291.051C156.947 293.008 154.417 295.801 152.663 299.153C150.908 302.505 149.99 306.298 150 310.157C150.01 314.015 150.947 317.803 152.719 321.144L238.651 477.364C240.46 480.611 243.006 483.295 246.045 485.158C249.084 487.021 252.513 488 256 488C259.487 488 262.916 487.021 265.955 485.158C268.994 483.295 271.54 480.611 273.349 477.364Z" fill="currentColor"/>
<rect x="288" y="38" width="187" height="187" rx="37" fill="currentColor"/>
<circle cx="139" cy="134" r="104" fill="currentColor"/>
</svg>
