<svg xmlns="http://www.w3.org/2000/svg" width="512" height="512" viewBox="0 0 512 512" fill="none"><g clip-path="url(#clip0_1512_285)"><rect width="512" height="512" fill="#1E75EB"/><g><path d="M-6.5582 -4.58486L276.035 -1.95042L-62.4802 272.432L-6.5582 -4.58486Z" fill="#0054C6"/></g><path d="M74.3697 60.1602V91.1182H49.4902L74.3697 60.1602Z" fill="white"/><path d="M74.3697 48.9922C74.3697 52.4039 73.0591 55.6759 70.7262 58.0883C68.3933 60.5007 65.2292 61.856 61.93 61.856C58.6308 61.856 55.4667 60.5007 53.1338 58.0883C50.8008 55.6759 49.4902 52.4039 49.4902 48.9922H74.3697Z" fill="white"/><path d="M78.469 91.1177C78.469 87.706 79.7871 84.4341 82.1332 82.0216C84.4794 79.6092 87.6615 78.2539 90.9794 78.2539C94.2974 78.2539 97.4795 79.6092 99.8256 82.0216C102.172 84.4341 103.49 87.706 103.49 91.1177H78.469Z" fill="white"/><path d="M78.469 79.9502V48.9922H103.49L78.469 79.9502Z" fill="white"/></g><path d="M269.766 467.182L332.999 352.361C334.303 349.905 334.993 347.121 335 344.285C335.007 341.449 334.332 338.661 333.041 336.197C331.75 333.734 329.888 331.681 327.641 330.242C325.394 328.804 322.84 328.031 320.233 328L193.767 328C191.16 328.031 188.606 328.804 186.359 330.242C184.112 331.681 182.25 333.734 180.959 336.197C179.668 338.661 178.993 341.449 179 344.285C179.007 347.121 179.697 349.905 181.001 352.361L244.234 467.182C245.565 469.569 247.439 471.542 249.675 472.911C251.911 474.281 254.434 475 257 475C259.566 475 262.089 474.281 264.325 472.911C266.561 471.542 268.435 469.569 269.766 467.182Z" fill="#FFFCFC"/><rect x="281" y="145" width="137" height="137" rx="37" fill="#FFFCFC"/><circle cx="171.5" cy="215.5" r="76.5" fill="#FFFCFC"/><defs><filter id="filter0_d_1512_285" x="-87.4802" y="-29.585" width="388.515" height="327.018" filterUnits="userSpaceOnUse" color-interpolation-filters="sRGB"><feGaussianBlur stdDeviation="12.5"/></filter><clipPath id="clip0_1512_285"><rect width="512" height="512" fill="white"/></clipPath></defs></svg>